<svg id="visual" viewBox="0 0 900 675" width="900" height="675" xmlns="http://www.w3.org/2000/svg" xmlns:xlink="http://www.w3.org/1999/xlink" version="1.1"><rect x="0" y="0" width="900" height="675" fill="#003865"></rect><path d="M0 471L11.5 473.8C23 476.7 46 482.3 69 490.2C92 498 115 508 138.2 508.2C161.3 508.3 184.7 498.7 207.8 491.7C231 484.7 254 480.3 277 480C300 479.7 323 483.3 346 485.5C369 487.7 392 488.3 415.2 487.7C438.3 487 461.7 485 484.8 489.7C508 494.3 531 505.7 554 505.7C577 505.7 600 494.3 623 493.2C646 492 669 501 692.2 504.8C715.3 508.7 738.7 507.3 761.8 508.2C785 509 808 512 831 509C854 506 877 497 888.5 492.5L900 488L900 676L888.5 676C877 676 854 676 831 676C808 676 785 676 761.8 676C738.7 676 715.3 676 692.2 676C669 676 646 676 623 676C600 676 577 676 554 676C531 676 508 676 484.8 676C461.7 676 438.3 676 415.2 676C392 676 369 676 346 676C323 676 300 676 277 676C254 676 231 676 207.8 676C184.7 676 161.3 676 138.2 676C115 676 92 676 69 676C46 676 23 676 11.5 676L0 676Z" fill="#ef5b0c"></path><path d="M0 507L11.5 512C23 517 46 527 69 533.3C92 539.7 115 542.3 138.2 541.3C161.3 540.3 184.7 535.7 207.8 529.2C231 522.7 254 514.3 277 515.7C300 517 323 528 346 530.5C369 533 392 527 415.2 522.3C438.3 517.7 461.7 514.3 484.8 513.5C508 512.7 531 514.3 554 515C577 515.7 600 515.3 623 515.5C646 515.7 669 516.3 692.2 517.7C715.3 519 738.7 521 761.8 524.7C785 528.3 808 533.7 831 536.3C854 539 877 539 888.5 539L900 539L900 676L888.5 676C877 676 854 676 831 676C808 676 785 676 761.8 676C738.7 676 715.3 676 692.2 676C669 676 646 676 623 676C600 676 577 676 554 676C531 676 508 676 484.8 676C461.7 676 438.3 676 415.2 676C392 676 369 676 346 676C323 676 300 676 277 676C254 676 231 676 207.8 676C184.7 676 161.3 676 138.2 676C115 676 92 676 69 676C46 676 23 676 11.5 676L0 676Z" fill="#f46f04"></path><path d="M0 553L11.5 555.5C23 558 46 563 69 567.2C92 571.3 115 574.7 138.2 574.5C161.3 574.3 184.7 570.7 207.8 568.2C231 565.7 254 564.3 277 562.7C300 561 323 559 346 560C369 561 392 565 415.2 566.5C438.3 568 461.7 567 484.8 565.8C508 564.7 531 563.3 554 564.8C577 566.3 600 570.7 623 573.7C646 576.7 669 578.3 692.2 572.8C715.3 567.3 738.7 554.7 761.8 553.7C785 552.7 808 563.3 831 568.7C854 574 877 574 888.5 574L900 574L900 676L888.5 676C877 676 854 676 831 676C808 676 785 676 761.8 676C738.7 676 715.3 676 692.2 676C669 676 646 676 623 676C600 676 577 676 554 676C531 676 508 676 484.8 676C461.7 676 438.3 676 415.2 676C392 676 369 676 346 676C323 676 300 676 277 676C254 676 231 676 207.8 676C184.7 676 161.3 676 138.2 676C115 676 92 676 69 676C46 676 23 676 11.5 676L0 676Z" fill="#f98100"></path><path d="M0 606L11.5 604.7C23 603.3 46 600.7 69 598.3C92 596 115 594 138.2 593.3C161.3 592.7 184.7 593.3 207.8 596.5C231 599.7 254 605.3 277 604.7C300 604 323 597 346 596.7C369 596.3 392 602.7 415.2 602.3C438.3 602 461.7 595 484.8 593.7C508 592.3 531 596.7 554 600C577 603.3 600 605.7 623 603.7C646 601.7 669 595.3 692.2 594.7C715.3 594 738.7 599 761.8 597.5C785 596 808 588 831 588.2C854 588.3 877 596.7 888.5 600.8L900 605L900 676L888.5 676C877 676 854 676 831 676C808 676 785 676 761.8 676C738.7 676 715.3 676 692.2 676C669 676 646 676 623 676C600 676 577 676 554 676C531 676 508 676 484.8 676C461.7 676 438.3 676 415.2 676C392 676 369 676 346 676C323 676 300 676 277 676C254 676 231 676 207.8 676C184.7 676 161.3 676 138.2 676C115 676 92 676 69 676C46 676 23 676 11.5 676L0 676Z" fill="#fc9300"></path><path d="M0 635L11.5 635C23 635 46 635 69 634.8C92 634.7 115 634.3 138.2 631.3C161.3 628.3 184.7 622.7 207.8 622.3C231 622 254 627 277 631.2C300 635.3 323 638.7 346 640.2C369 641.7 392 641.3 415.2 639.8C438.3 638.3 461.7 635.7 484.8 634C508 632.3 531 631.7 554 632.5C577 633.3 600 635.7 623 636.8C646 638 669 638 692.2 636.5C715.3 635 738.7 632 761.8 632.7C785 633.3 808 637.7 831 635.5C854 633.3 877 624.7 888.5 620.3L900 616L900 676L888.5 676C877 676 854 676 831 676C808 676 785 676 761.8 676C738.7 676 715.3 676 692.2 676C669 676 646 676 623 676C600 676 577 676 554 676C531 676 508 676 484.8 676C461.7 676 438.3 676 415.2 676C392 676 369 676 346 676C323 676 300 676 277 676C254 676 231 676 207.8 676C184.7 676 161.3 676 138.2 676C115 676 92 676 69 676C46 676 23 676 11.5 676L0 676Z" fill="#ffa500"></path></svg>